<?xml version="1.0" encoding="utf-8"?>
<!-- Generator: Adobe Illustrator 22.1.0, SVG Export Plug-In . SVG Version: 6.00 Build 0)  -->
<svg version="1.0" id="Layer_1" xmlns="http://www.w3.org/2000/svg" xmlns:xlink="http://www.w3.org/1999/xlink" x="0px" y="0px"
	 viewBox="0 0 250 250" enable-background="new 0 0 250 250" xml:space="preserve">
<title>afternoon</title>
<g id="Sun">
	<circle id="Circle" fill="none" stroke="#231F20" stroke-width="6" stroke-miterlimit="10" cx="125" cy="125" r="74.7"/>
	<path fill="#231F20" d="M76.7,121.8c1.7-24.2,21-43.5,45.3-45v-5.6c-27.3,1.5-49.2,23.3-50.9,50.6H76.7z"/>
</g>
<g id="Points">
	<g id="Sunrays">
		<polygon fill="none" stroke="#231F20" stroke-width="6" stroke-miterlimit="10" points="107.2,36.9 142.8,36.9 125,6 		"/>
		<polygon fill="none" stroke="#231F20" stroke-width="6" stroke-miterlimit="10" points="125,244 142.8,213.1 107.2,213.1 		"/>
		<polygon fill="none" stroke="#231F20" stroke-width="6" stroke-miterlimit="10" points="213.1,107.2 213.1,142.8 244,125 		"/>
		<polygon fill="none" stroke="#231F20" stroke-width="6" stroke-miterlimit="10" points="36.9,142.8 36.9,107.2 6,125 		"/>
		<polygon fill="none" stroke="#231F20" stroke-width="6" stroke-miterlimit="10" points="199.9,75.3 209.1,40.8 174.7,50.1 		"/>
		<polygon fill="none" stroke="#231F20" stroke-width="6" stroke-miterlimit="10" points="40.8,209.1 75.3,199.9 50.1,174.7 		"/>
		<polygon fill="none" stroke="#231F20" stroke-width="6" stroke-miterlimit="10" points="50.1,75.3 75.3,50.1 40.8,40.8 		"/>
		<polygon fill="none" stroke="#231F20" stroke-width="6" stroke-miterlimit="10" points="174.7,199.9 209.1,209.1 199.9,174.7 		
			"/>
	</g>
</g>
</svg>
