<?xml version="1.0" encoding="utf-8"?>
<!-- Generator: Adobe Illustrator 22.1.0, SVG Export Plug-In . SVG Version: 6.00 Build 0)  -->
<svg version="1.0" xmlns="http://www.w3.org/2000/svg" xmlns:xlink="http://www.w3.org/1999/xlink" x="0px" y="0px"
	 viewBox="0 0 250 250" enable-background="new 0 0 250 250" xml:space="preserve">
<g id="Sun">
	<path id="Shadow" d="M72.7,155.3c1.6-24.2,21-43.6,45.3-45v-5.6c-27.3,1.5-49.2,23.3-50.9,50.6H72.7z"/>
</g>
<g id="Points">
</g>
<g id="Guides" display="none">
</g>
<g id="Layer_4">
	<g>
		<rect x="49.8" y="184.6" fill="none" stroke="#000000" stroke-width="6" stroke-miterlimit="10" width="150.5" height="15.1"/>
		<polygon fill="none" stroke="#000000" stroke-width="6" stroke-miterlimit="10" points="125,50.3 107.2,81.2 142.8,81.2 		"/>
		<polygon fill="none" stroke="#000000" stroke-width="6" stroke-miterlimit="10" points="213.1,151.5 213.1,187.1 244,169.3 		"/>
		<polygon fill="none" stroke="#000000" stroke-width="6" stroke-miterlimit="10" points="36.9,187.1 36.9,151.5 6,169.3 		"/>
		<polygon fill="none" stroke="#000000" stroke-width="6" stroke-miterlimit="10" points="199.9,119.6 209.1,85.2 174.7,94.4 		"/>
		<polygon fill="none" stroke="#000000" stroke-width="6" stroke-miterlimit="10" points="75.3,94.4 40.9,85.2 50.1,119.6 		"/>
		<path fill="none" stroke="#000000" stroke-width="6" stroke-miterlimit="10" d="M50.3,166.1h149.4c0-41.3-33.4-74.7-74.7-74.7
			S50.3,124.8,50.3,166.1z"/>
	</g>
	<g>
	</g>
	<g>
	</g>
	<g>
	</g>
	<g>
	</g>
	<g>
	</g>
	<g>
	</g>
</g>
</svg>
