<svg id="Layer_1" data-name="Layer 1" xmlns="http://www.w3.org/2000/svg" viewBox="0 0 230.24 149.37"><defs><style>.cls-1{fill:#231f20;}</style></defs><title>morning</title><path class="cls-1" d="M312,249.5c-.49-26-15.67-50.4-40.22-60.13s-52.95-1.37-69.3,19.1a67.35,67.35,0,0,0-14.46,41,3.8,3.8,0,0,0,3.75,3.75H308.24c4.82,0,4.83-7.5,0-7.5H191.76l3.75,3.75c.56-29.84,23.6-56.76,54.49-56.76s53.93,26.92,54.49,56.76C304.58,254.32,312.08,254.34,312,249.5Z" transform="translate(-134.88 -131.88)"/><path class="cls-1" d="M253.75,171.5v-36c0-4.83-7.5-4.83-7.5,0v36c0,4.83,7.5,4.83,7.5,0Z" transform="translate(-134.88 -131.88)"/><path class="cls-1" d="M325,253.25h36c4.83,0,4.83-7.5,0-7.5H325c-4.83,0-4.83,7.5,0,7.5Z" transform="translate(-134.88 -131.88)"/><path class="cls-1" d="M139,253.25h36c4.83,0,4.83-7.5,0-7.5H139c-4.83,0-4.83,7.5,0,7.5Z" transform="translate(-134.88 -131.88)"/><path class="cls-1" d="M167.62,173.42l25.46,25.46c3.41,3.42,8.72-1.88,5.3-5.3l-25.46-25.46c-3.41-3.42-8.72,1.88-5.3,5.3Z" transform="translate(-134.88 -131.88)"/><path class="cls-1" d="M306.92,198.88l25.46-25.46c3.42-3.41-1.88-8.72-5.3-5.3l-25.46,25.46c-3.42,3.41,1.88,8.72,5.3,5.3Z" transform="translate(-134.88 -131.88)"/><path class="cls-1" d="M138.5,281.25h223c4.83,0,4.83-7.5,0-7.5h-223c-4.83,0-4.83,7.5,0,7.5Z" transform="translate(-134.88 -131.88)"/><path class="cls-1" d="M213.25,239.5a29,29,0,0,1,28.25-29.25c4.82-.11,4.84-7.61,0-7.5a36.66,36.66,0,0,0-35.75,36.75c0,4.83,7.48,4.83,7.5,0Z" transform="translate(-134.88 -131.88)"/></svg>