<svg id="Layer_1" data-name="Layer 1" xmlns="http://www.w3.org/2000/svg" viewBox="0 0 326.12 359.71"><defs><style>.cls-1{fill:#231f20;}</style></defs><title>night</title><path class="cls-1" d="M399.26,356.47c-49.87,22.49-106.68,3-144-33.83-43.16-42.56-64.53-108.74-49-168,7.91-30.22,25.75-57.47,52.51-74.13,3-1.88,2-7.16-1.89-7-52.06,2.37-101.68,27.18-133.95,68.22a179.9,179.9,0,0,0,274.7,232.09c4.24-4.71,8.2-9.67,11.95-14.77,2.4-3.26-2.11-6.68-5.13-5.13-1.71.88-3.44,1.72-5.18,2.55-4.37,2-.56,8.51,3.78,6.47,1.75-.82,3.47-1.67,5.19-2.55l-5.13-5.13c-29.1,39.56-74.84,65.55-123.82,69.8a174.38,174.38,0,0,1-118.54-33.72c-35.24-26.19-59.21-66-66.69-109.16-7.31-42.2,2-86.49,25.18-122.45C149.32,113,201.39,83.54,256.87,81L255,74c-53.44,33.28-69.87,101.44-56.74,160.11,13.37,59.7,56.82,114.74,116.28,133.4,29.18,9.16,60.57,8,88.53-4.59C407.44,361,403.63,354.49,399.26,356.47Z" transform="translate(-84.13 -73.5)"/></svg>