<?xml version="1.0" encoding="utf-8"?>
<!-- Generator: Adobe Illustrator 22.1.0, SVG Export Plug-In . SVG Version: 6.00 Build 0)  -->
<svg version="1.1" id="Layer_1" xmlns="http://www.w3.org/2000/svg" xmlns:xlink="http://www.w3.org/1999/xlink" x="0px" y="0px"
	 viewBox="0 0 250 250" style="enable-background:new 0 0 250 250;" xml:space="preserve">
<style type="text/css">
	.st0{fill:none;stroke:#000000;stroke-width:6;stroke-miterlimit:10;}
</style>
<g id="Moon">
	<path class="st0" d="M132.2,8c-5.1-1-10.2-1.6-15.3-2c9.7,8.3,25.8,24.4,36.8,49.4c4.2,9.6,19.2,46.5,7.7,88.7
		c-18.6,68.4-90.6,91.5-95.7,93.1c6.8,2.6,14,4.6,21.4,6c67.3,12.9,131.9-29.3,144.4-94.3S199.5,20.8,132.2,8z"/>
</g>
<g id="Star">
	<polygon class="st0" points="74.6,121.5 82.1,136.5 98.7,139 86.7,150.7 89.5,167.3 74.6,159.4 59.8,167.3 62.6,150.7 50.6,139 
		67.2,136.5 	"/>
</g>
</svg>
