<svg id="Layer_1" data-name="Layer 1" xmlns="http://www.w3.org/2000/svg" viewBox="0 0 229.24 233.24"><defs><style>.cls-1{fill:#231f20;}</style></defs><title>noon</title><path class="cls-1" d="M253.75,171.5v-36c0-4.83-7.5-4.83-7.5,0v36c0,4.83,7.5,4.83,7.5,0Z" transform="translate(-135.38 -131.88)"/><path class="cls-1" d="M325,253.25h36c4.83,0,4.83-7.5,0-7.5H325c-4.83,0-4.83,7.5,0,7.5Z" transform="translate(-135.38 -131.88)"/><path class="cls-1" d="M139,253.25h36c4.83,0,4.83-7.5,0-7.5H139c-4.83,0-4.83,7.5,0,7.5Z" transform="translate(-135.38 -131.88)"/><path class="cls-1" d="M167.62,173.42l25.46,25.46c3.41,3.42,8.72-1.88,5.3-5.3l-25.46-25.46c-3.41-3.42-8.72,1.88-5.3,5.3Z" transform="translate(-135.38 -131.88)"/><path class="cls-1" d="M306.92,198.88l25.46-25.46c3.42-3.41-1.88-8.72-5.3-5.3l-25.46,25.46c-3.42,3.41,1.88,8.72,5.3,5.3Z" transform="translate(-135.38 -131.88)"/><path class="cls-1" d="M213.25,239.5a29,29,0,0,1,28.25-29.25c4.82-.11,4.84-7.61,0-7.5a36.66,36.66,0,0,0-35.75,36.75c0,4.83,7.48,4.83,7.5,0Z" transform="translate(-135.38 -131.88)"/><path class="cls-1" d="M304.25,247c-.27,22.82-14.61,43.77-36.41,51.26A54.27,54.27,0,1,1,260,193.66c25.59,4.9,43.92,27.45,44.23,53.34.06,4.82,7.56,4.84,7.5,0a62.56,62.56,0,0,0-40.65-58c-24.2-8.91-52.38-1.15-68.71,18.75s-18.71,48.65-5.49,70.83a62.42,62.42,0,0,0,65.12,29C290.83,302,311.4,276,311.75,247,311.81,242.17,304.31,242.17,304.25,247Z" transform="translate(-135.38 -131.88)"/><path class="cls-1" d="M246.25,325.5v36c0,4.83,7.5,4.83,7.5,0v-36c0-4.83-7.5-4.83-7.5,0Z" transform="translate(-135.38 -131.88)"/><path class="cls-1" d="M175,245.75H139c-4.83,0-4.83,7.5,0,7.5h36c4.83,0,4.83-7.5,0-7.5Z" transform="translate(-135.38 -131.88)"/><path class="cls-1" d="M361,245.75H325c-4.83,0-4.83,7.5,0,7.5h36c4.83,0,4.83-7.5,0-7.5Z" transform="translate(-135.38 -131.88)"/><path class="cls-1" d="M332.38,325.58l-25.46-25.46c-3.41-3.42-8.72,1.88-5.3,5.3l25.46,25.46c3.41,3.42,8.72-1.88,5.3-5.3Z" transform="translate(-135.38 -131.88)"/><path class="cls-1" d="M193.08,300.12l-25.46,25.46c-3.42,3.41,1.88,8.72,5.3,5.3l25.46-25.46c3.42-3.41-1.88-8.72-5.3-5.3Z" transform="translate(-135.38 -131.88)"/></svg>