<?xml version="1.0" encoding="utf-8"?>
<!-- Generator: Adobe Illustrator 22.1.0, SVG Export Plug-In . SVG Version: 6.00 Build 0)  -->
<svg version="1.0" id="Question_Mark" xmlns="http://www.w3.org/2000/svg" xmlns:xlink="http://www.w3.org/1999/xlink" x="0px"
	 y="0px" viewBox="0 0 250 250" enable-background="new 0 0 250 250" xml:space="preserve">
<rect x="88.3" y="184.6" fill="none" stroke="#000000" stroke-width="6" stroke-miterlimit="10" width="61.4" height="54.2"/>
<path fill="none" stroke="#000000" stroke-width="6" stroke-miterlimit="10" d="M90.3,169.5h57.2c0,0-1.2-18.9,12.8-29.5
	c14.1-10.5,32.1-28.1,32.1-28.1s22.3-23.1,11.5-53.5s-40.7-38.4-40.7-38.4S99.9-0.5,61.7,35.9c0,0-18.6,17.3-21.1,49.7l58,7.5
	c0,0,1.3-34.6,30.1-31.9c3.7,0.4,11.1,1.2,14.9,7.1c4.9,7.5,0,17.4-0.7,18.7c-1.3,2.5-2.8,4.4-3.9,5.6c-2.1,1.4-5.1,3.6-8.6,6.3
	c-10.3,8-18.8,16-22,19.6C94.3,133.9,91.1,160.7,90.3,169.5z"/>
<g>
</g>
<g>
</g>
<g>
</g>
<g>
</g>
<g>
</g>
<g>
</g>
</svg>
